<svg width="853" height="719" viewBox="0 0 853 719" fill="none" xmlns="http://www.w3.org/2000/svg">
<path opacity="0.010101" d="M272.067 341.07L409.643 82.3265C413.405 75.25 421.297 71.4011 429.19 72.7928L717.782 123.679C725.675 125.071 731.774 131.387 732.89 139.324L773.674 429.516C774.789 437.453 770.667 445.205 763.464 448.719L500.077 577.181C492.873 580.695 484.227 579.17 478.659 573.405L275.093 362.606C269.526 356.841 268.304 348.146 272.067 341.07Z" stroke="url(#paint0_linear_527_222)" stroke-width="3"/>
<path opacity="0.020202" d="M269.149 337.411L410.935 81.6224C414.821 74.6126 422.778 70.902 430.646 72.4313L717.729 128.235C725.597 129.764 731.585 136.185 732.561 144.14L768.203 434.417C769.18 442.372 764.923 450.051 757.659 453.438L492.603 577.036C485.34 580.423 476.721 578.748 471.255 572.886L271.8 358.997C266.334 353.135 265.264 344.421 269.149 337.411Z" stroke="url(#paint1_linear_527_222)" stroke-width="3"/>
<path opacity="0.030303" d="M266.313 333.763L412.248 80.9975C416.255 74.0566 424.276 70.4854 432.116 72.1517L717.607 132.835C725.446 134.501 731.321 141.026 732.159 148.997L762.668 439.267C763.505 447.238 759.115 454.841 751.794 458.101L485.158 576.815C477.836 580.075 469.248 578.249 463.885 572.293L268.587 355.392C263.224 349.436 262.306 340.704 266.313 333.763Z" stroke="url(#paint2_linear_527_222)" stroke-width="3"/>
<path opacity="0.040404" d="M263.561 330.129L413.582 80.4523C417.71 73.5823 425.792 70.1517 433.601 71.9546L717.417 137.479C725.226 139.282 730.986 145.908 731.685 153.892L757.072 444.065C757.77 452.049 753.248 459.575 745.87 462.707L477.745 576.519C470.367 579.651 461.812 577.676 456.554 571.627L265.456 351.794C260.198 345.746 259.433 336.999 263.561 330.129Z" stroke="url(#paint3_linear_527_222)" stroke-width="3"/>
<path opacity="0.050505" d="M260.889 326.508L414.933 79.9861C419.18 73.1892 427.321 69.9002 435.098 71.8391L717.156 142.164C724.933 144.103 730.577 150.829 731.136 158.824L751.413 448.81C751.972 456.805 747.32 464.251 739.889 467.253L470.362 576.149C462.931 579.151 454.412 577.027 449.26 570.887L262.406 348.203C257.254 342.064 256.642 333.305 260.889 326.508Z" stroke="url(#paint4_linear_527_222)" stroke-width="3"/>
<path opacity="0.0606061" d="M258.298 322.901L416.301 79.5983C420.666 72.8766 428.863 69.7301 436.604 71.8045L716.825 146.889C724.566 148.964 730.092 155.787 730.511 163.791L745.694 453.499C746.114 461.503 741.332 468.866 733.849 471.738L463.012 575.703C455.53 578.575 447.049 576.303 442.005 570.074L259.436 344.62C254.392 338.391 253.933 329.623 258.298 322.901Z" stroke="url(#paint5_linear_527_222)" stroke-width="3"/>
<path opacity="0.0707071" d="M255.788 319.311L417.685 79.29C422.166 72.6456 430.417 69.6426 438.121 71.8518L716.424 151.654C724.128 153.863 729.533 160.782 729.813 168.791L739.917 458.133C740.197 466.143 735.287 473.422 727.756 476.163L455.698 575.184C448.167 577.925 439.727 575.505 434.792 569.189L256.547 341.046C251.613 334.73 251.307 325.956 255.788 319.311Z" stroke="url(#paint6_linear_527_222)" stroke-width="3"/>
<path opacity="0.0808081" d="M253.358 315.74L419.082 79.0626C423.679 72.4973 431.98 69.6389 439.645 71.9822L715.95 156.457C723.615 158.8 728.898 165.812 729.038 173.826L734.081 462.712C734.221 470.725 729.185 477.918 721.607 480.527L448.418 574.593C440.84 577.203 432.443 574.636 427.62 568.235L253.738 337.485C248.914 331.084 248.761 322.306 253.358 315.74Z" stroke="url(#paint7_linear_527_222)" stroke-width="3"/>
<path opacity="0.0909091" d="M251.008 312.188L420.492 78.9141C425.203 72.4301 433.553 69.7169 441.175 72.1936L715.405 161.296C723.028 163.773 728.188 170.876 728.188 178.891V467.233C728.188 475.248 723.028 482.351 715.405 484.828L441.175 573.93C433.553 576.407 425.203 573.694 420.492 567.21L251.008 333.936C246.298 327.452 246.298 318.672 251.008 312.188Z" stroke="url(#paint8_linear_527_222)" stroke-width="3"/>
<path opacity="0.10101" d="M248.738 308.656L421.913 78.8448C426.736 72.444 435.133 69.877 442.711 72.4863L714.788 166.17C722.366 168.779 727.402 175.971 727.262 183.985L722.24 471.696C722.1 479.709 716.816 486.721 709.152 489.064L433.971 573.196C426.306 575.539 418.005 572.681 413.408 566.115L248.359 330.401C243.761 323.835 243.915 315.057 248.738 308.656Z" stroke="url(#paint9_linear_527_222)" stroke-width="3"/>
<path opacity="0.111111" d="M246.545 305.147L423.343 78.8566C428.277 72.541 436.717 70.1209 444.248 72.862L714.097 171.079C721.628 173.82 726.538 181.099 726.258 189.109L716.236 476.101C715.957 484.11 710.551 491.029 702.847 493.238L426.804 572.392C419.1 574.601 410.85 571.598 406.368 564.954L245.786 326.882C241.305 320.237 241.611 311.463 246.545 305.147Z" stroke="url(#paint10_linear_527_222)" stroke-width="3"/>
<path opacity="0.121212" d="M244.432 301.66L424.782 78.9468C429.826 72.7183 438.306 70.4458 445.789 73.318L713.333 176.019C720.816 178.891 725.598 186.254 725.178 194.258L710.18 480.444C709.76 488.448 704.235 495.271 696.493 497.346L419.679 571.518C411.938 573.592 403.741 570.446 399.376 563.724L243.294 323.379C238.929 316.657 239.388 307.889 244.432 301.66Z" stroke="url(#paint11_linear_527_222)" stroke-width="3"/>
<path opacity="0.131313" d="M242.396 298.2L426.228 79.1181C431.379 72.9785 439.899 70.8544 447.33 73.8568L712.496 180.991C719.927 183.993 724.58 191.439 724.021 199.434L704.071 484.729C703.512 492.724 697.868 499.45 690.092 501.389L412.596 570.576C404.819 572.515 396.678 569.226 392.431 562.429L240.879 319.895C236.632 313.098 237.244 304.34 242.396 298.2Z" stroke="url(#paint12_linear_527_222)" stroke-width="3"/>
<path opacity="0.141414" d="M240.436 294.765L427.678 79.3687C432.936 73.32 441.491 71.3449 448.868 74.4765L711.584 185.992C718.961 189.124 723.483 196.65 722.785 204.634L697.91 488.952C697.212 496.936 691.452 503.562 683.642 505.365L405.554 569.567C397.744 571.37 389.662 567.939 385.535 561.069L238.541 316.431C234.413 309.561 235.178 300.814 240.436 294.765Z" stroke="url(#paint13_linear_527_222)" stroke-width="3"/>
<path opacity="0.151515" d="M238.554 291.358L429.133 79.6985C434.496 73.7425 443.084 71.917 450.406 75.1769L710.598 191.022C717.92 194.282 722.31 201.885 721.472 209.856L691.701 493.112C690.863 501.082 684.988 507.607 677.149 509.273L398.557 568.49C390.717 570.156 382.696 566.585 378.689 559.644L236.281 312.987C232.274 306.046 233.192 297.314 238.554 291.358Z" stroke="url(#paint14_linear_527_222)" stroke-width="3"/>
<path opacity="0.161616" d="M236.747 287.979L430.59 80.1084C436.056 74.2468 444.675 72.5715 451.938 75.9586L709.536 196.078C716.8 199.466 721.057 207.145 720.08 215.1L685.441 497.209C684.465 505.164 678.477 511.585 670.609 513.115L391.603 567.348C383.736 568.877 375.779 565.166 371.893 558.157L234.097 309.565C230.211 302.556 231.281 293.841 236.747 287.979Z" stroke="url(#paint15_linear_527_222)" stroke-width="3"/>
<path opacity="0.171717" d="M235.015 284.632L432.048 80.5981C437.616 74.8328 446.262 73.3082 453.466 76.8216L708.4 201.161C715.603 204.675 719.725 212.427 718.61 220.364L679.135 501.243C678.019 509.18 671.92 515.496 664.027 516.888L384.697 566.141C376.804 567.533 368.912 563.684 365.149 556.607L231.989 306.168C228.226 299.091 229.448 290.397 235.015 284.632Z" stroke="url(#paint16_linear_527_222)" stroke-width="3"/>
<path opacity="0.181818" d="M233.358 281.315L433.506 81.1666C439.174 75.4994 447.845 74.1259 454.987 77.7645L707.188 206.267C714.329 209.906 718.315 217.729 717.061 225.645L672.782 505.213C671.529 513.129 665.32 519.337 657.404 520.591L377.837 564.87C369.921 566.124 362.098 562.138 358.459 554.997L229.956 302.795C226.317 295.654 227.691 286.982 233.358 281.315Z" stroke="url(#paint17_linear_527_222)" stroke-width="3"/>
<path opacity="0.191919" d="M231.774 278.031L434.962 81.8147C440.727 76.2472 449.422 75.0253 456.498 78.7879L705.9 211.397C712.976 215.16 716.825 223.051 715.434 230.944L666.384 509.117C664.992 517.01 658.677 523.109 650.74 524.225L371.024 563.536C363.088 564.652 355.335 560.53 351.822 553.326L227.998 299.449C224.484 292.245 226.009 283.598 231.774 278.031Z" stroke="url(#paint18_linear_527_222)" stroke-width="3"/>
<path opacity="0.20202" d="M230.264 274.78L436.415 82.5401C442.277 77.0741 450.991 76.0041 458.001 79.8897L704.536 216.546C711.546 220.432 715.257 228.389 713.727 236.257L659.943 512.954C658.413 520.822 651.992 526.81 644.037 527.787L364.262 562.139C356.307 563.115 348.627 558.859 345.24 551.595L226.114 296.128C222.727 288.864 224.402 280.246 230.264 274.78Z" stroke="url(#paint19_linear_527_222)" stroke-width="3"/>
<path opacity="0.212121" d="M228.825 271.565L437.863 83.3465C443.819 77.9836 452.551 77.0658 459.492 81.0732L703.095 221.718C710.036 225.725 713.607 233.746 711.941 241.585L653.458 516.728C651.792 524.567 645.267 530.442 637.296 531.28L357.548 560.683C349.577 561.52 341.973 557.13 338.714 549.809L224.303 292.838C221.043 285.517 222.869 276.928 228.825 271.565Z" stroke="url(#paint20_linear_527_222)" stroke-width="3"/>
<path opacity="0.222222" d="M227.458 268.386L439.306 84.2296C445.354 78.9715 454.101 78.2063 460.971 82.3342L701.579 226.906C708.449 231.034 711.879 239.116 710.076 246.925L646.932 520.432C645.129 528.241 638.503 534.001 630.519 534.7L350.886 559.165C342.902 559.863 335.376 555.341 332.244 547.964L222.565 289.577C219.434 282.199 221.409 273.644 227.458 268.386Z" stroke="url(#paint21_linear_527_222)" stroke-width="3"/>
<path opacity="0.232323" d="M226.161 265.246L440.741 85.1922C446.88 80.0404 455.639 79.428 462.436 83.6751L699.985 232.113C706.782 236.36 710.071 244.5 708.132 252.277L640.367 524.07C638.428 531.846 631.702 537.49 623.707 538.049L344.276 557.589C336.281 558.148 328.835 553.495 325.832 546.064L220.9 286.348C217.898 278.917 220.022 270.397 226.161 265.246Z" stroke="url(#paint22_linear_527_222)" stroke-width="3"/>
<path opacity="0.242424" d="M224.934 262.144L442.167 86.2327C448.395 81.1889 457.163 80.7294 463.885 85.0945L698.315 237.335C705.036 241.7 708.183 249.897 706.108 257.639L633.762 527.64C631.688 535.381 624.864 540.907 616.861 541.326L337.718 555.955C329.714 556.375 322.351 551.593 319.479 544.11L219.306 283.151C216.433 275.669 218.706 267.188 224.934 262.144Z" stroke="url(#paint23_linear_527_222)" stroke-width="3"/>
<path opacity="0.252525" d="M223.777 259.081L443.583 87.3499C449.899 82.4156 458.674 82.1092 465.318 86.5909L696.568 242.571C703.213 247.053 706.216 255.303 704.006 263.007L627.121 531.14C624.912 538.844 617.993 544.249 609.983 544.529L331.215 554.264C323.205 554.544 315.926 549.634 313.185 542.102L217.783 279.987C215.042 272.455 217.462 264.015 223.777 259.081Z" stroke="url(#paint24_linear_527_222)" stroke-width="3"/>
<path opacity="0.262626" d="M222.687 256.06L444.988 88.5443C451.388 83.7209 460.167 83.5677 466.732 88.1648L694.743 247.82C701.309 252.417 704.167 260.718 701.824 268.383L620.442 534.57C618.099 542.235 611.087 547.519 603.073 547.659L324.766 552.517C316.752 552.656 309.56 547.62 306.951 540.042L216.329 276.857C213.72 269.279 216.287 260.883 222.687 256.06Z" stroke="url(#paint25_linear_527_222)" stroke-width="3"/>
<path opacity="0.272727" d="M221.666 253.081L446.38 89.8165C452.864 85.1055 461.644 85.1056 468.128 89.8165L692.843 253.081C699.327 257.792 702.04 266.142 699.563 273.765L613.73 537.932C611.253 545.555 604.15 550.715 596.135 550.715L318.373 550.715C310.358 550.715 303.255 545.555 300.779 537.932L214.945 273.765C212.469 266.142 215.182 257.792 221.666 253.081Z" stroke="url(#paint26_linear_527_222)" stroke-width="3"/>
<path opacity="0.282828" d="M220.71 250.146L447.758 91.165C454.323 86.5679 463.102 86.7211 469.502 91.5445L690.864 258.352C697.264 263.176 699.831 271.572 697.222 279.15L606.983 541.224C604.374 548.802 597.181 553.838 589.168 553.698L312.036 548.86C304.022 548.721 297.01 543.437 294.667 535.772L213.629 270.709C211.286 263.044 214.144 254.743 220.71 250.146Z" stroke="url(#paint27_linear_527_222)" stroke-width="3"/>
<path opacity="0.292929" d="M219.819 247.255L449.12 92.5902C455.765 88.1084 464.539 88.4148 470.855 93.3492L688.808 263.633C695.124 268.567 697.544 277.007 694.803 284.538L600.205 544.445C597.463 551.976 590.184 556.886 582.175 556.606L305.756 546.954C297.747 546.674 290.828 541.268 288.619 533.564L212.381 267.692C210.172 259.988 213.175 251.737 219.819 247.255Z" stroke="url(#paint28_linear_527_222)" stroke-width="3"/>
<path opacity="0.30303" d="M218.993 244.409L450.465 94.0897C457.187 89.7246 465.955 90.1841 472.184 95.2279L686.675 268.92C692.904 273.963 695.176 282.444 692.304 289.927L593.395 547.594C590.522 555.076 583.159 559.858 575.155 559.439L299.535 544.994C291.531 544.574 284.708 539.049 282.633 531.307L211.199 264.713C209.125 256.971 212.272 248.775 218.993 244.409Z" stroke="url(#paint29_linear_527_222)" stroke-width="3"/>
<path opacity="0.313131" d="M218.231 241.611L451.793 95.6658C458.589 91.4187 467.348 92.0311 473.488 97.1829L684.465 274.214C690.604 279.365 692.728 287.885 689.726 295.316L586.555 550.672C583.553 558.104 576.107 562.756 568.112 562.197L293.372 542.985C285.377 542.426 278.651 536.783 276.712 529.006L210.084 261.776C208.145 253.999 211.434 245.859 218.231 241.611Z" stroke="url(#paint30_linear_527_222)" stroke-width="3"/>
<path opacity="0.323232" d="M217.531 238.86L453.1 97.3151C459.97 93.1873 468.717 93.9525 474.766 99.2106L682.177 279.511C688.226 284.769 690.201 293.324 687.07 300.702L579.688 553.678C576.556 561.055 569.03 565.577 561.046 564.879L287.268 540.926C279.284 540.228 272.658 534.468 270.855 526.658L209.033 258.879C207.23 251.07 210.661 242.987 217.531 238.86Z" stroke="url(#paint31_linear_527_222)" stroke-width="3"/>
<path opacity="0.333333" d="M216.893 236.158L454.388 99.04C461.329 95.0327 470.061 95.9504 476.017 101.313L679.814 284.813C685.77 290.175 687.595 298.764 684.335 306.085L572.794 556.612C569.534 563.934 561.93 568.324 553.959 567.486L281.226 538.821C273.255 537.983 266.731 532.108 265.064 524.268L208.048 256.026C206.381 248.186 209.952 240.165 216.893 236.158Z" stroke="url(#paint32_linear_527_222)" stroke-width="3"/>
<path opacity="0.343434" d="M216.316 233.505L455.654 100.838C462.664 96.9522 471.378 98.0222 477.24 103.488L677.373 290.115C683.234 295.581 684.91 304.2 681.523 311.464L565.874 559.473C562.487 566.737 554.808 570.993 546.853 570.017L275.245 536.667C267.29 535.691 260.869 529.703 259.339 521.835L207.125 253.215C205.596 245.348 209.306 237.39 216.316 233.505Z" stroke="url(#paint33_linear_527_222)" stroke-width="3"/>
<path opacity="0.353535" d="M215.798 230.904L456.896 102.71C463.972 98.9471 472.667 100.169 478.432 105.737L674.855 295.42C680.62 300.987 682.145 309.634 678.631 316.838L558.93 562.262C555.416 569.466 547.664 573.588 539.728 572.472L269.325 534.47C261.388 533.354 255.072 527.255 253.681 519.362L206.264 250.451C204.873 242.558 208.722 234.666 215.798 230.904Z" stroke="url(#paint34_linear_527_222)" stroke-width="3"/>
<path opacity="0.363636" d="M215.338 228.353L458.113 104.653C465.254 101.015 473.926 102.388 479.593 108.056L672.26 300.723C677.927 306.39 679.301 315.062 675.662 322.203L551.962 564.977C548.324 572.118 540.501 576.104 532.585 574.851L263.467 532.227C255.551 530.973 249.343 524.764 248.089 516.848L205.465 247.731C204.211 239.815 208.197 231.992 215.338 228.353Z" stroke="url(#paint35_linear_527_222)" stroke-width="3"/>
<path opacity="0.373737" d="M214.937 225.856L459.305 106.67C466.508 103.157 475.155 104.681 480.722 110.447L669.589 306.024C675.157 311.789 676.379 320.484 672.616 327.56L544.974 567.62C541.211 574.696 533.32 578.545 525.427 577.154L257.673 529.941C249.78 528.55 243.681 522.234 242.566 514.297L204.727 245.059C203.611 237.122 207.733 229.37 214.937 225.856Z" stroke="url(#paint36_linear_527_222)" stroke-width="3"/>
<path opacity="0.383838" d="M214.592 223.412L460.47 108.757C467.734 105.37 476.353 107.045 481.819 112.907L666.843 311.32C672.309 317.182 673.379 325.897 669.493 332.906L537.966 570.188C534.08 577.197 526.123 580.908 518.255 579.379L251.943 527.613C244.076 526.084 238.088 519.662 237.111 511.707L204.048 242.433C203.072 234.478 207.328 226.799 214.592 223.412Z" stroke="url(#paint37_linear_527_222)" stroke-width="3"/>
<path opacity="0.393939" d="M214.302 221.023L461.606 110.915C468.928 107.655 477.516 109.481 482.879 115.437L664.019 316.613C669.382 322.569 670.299 331.301 666.292 338.242L530.938 572.682C526.93 579.623 518.909 583.195 511.07 581.528L246.277 525.245C238.437 523.578 232.562 517.053 231.724 509.083L203.428 239.857C202.59 231.886 206.98 224.282 214.302 221.023Z" stroke="url(#paint38_linear_527_222)" stroke-width="3"/>
<path opacity="0.40404" d="M214.066 218.687L462.714 113.143C470.092 110.011 478.647 111.986 483.905 118.035L661.12 321.898C666.378 327.947 667.143 336.693 663.015 343.563L523.893 575.102C519.765 581.972 511.683 585.403 503.874 583.6L240.676 522.836C232.867 521.033 227.106 514.406 226.408 506.422L202.865 237.329C202.167 229.345 206.689 221.819 214.066 218.687Z" stroke="url(#paint39_linear_527_222)" stroke-width="3"/>
<path opacity="0.414141" d="M213.884 216.41L463.791 115.441C471.222 112.439 479.741 114.563 484.893 120.702L658.146 327.177C663.297 333.316 663.91 342.075 659.663 348.872L516.832 577.449C512.585 584.246 504.444 587.535 496.667 585.596L235.141 520.39C227.364 518.451 221.72 511.725 221.161 503.73L202.359 234.853C201.8 226.858 206.453 219.412 213.884 216.41Z" stroke="url(#paint40_linear_527_222)" stroke-width="3"/>
<path opacity="0.424242" d="M213.754 214.189L464.836 117.808C472.319 114.935 480.8 117.208 485.843 123.437L655.096 332.446C660.14 338.675 660.6 347.443 656.234 354.165L509.756 579.721C505.391 586.443 497.194 589.589 489.453 587.515L229.671 517.907C221.93 515.832 216.404 509.009 215.985 501.005L201.909 232.429C201.49 224.425 206.272 217.061 213.754 214.189Z" stroke="url(#paint41_linear_527_222)" stroke-width="3"/>
<path opacity="0.434343" d="M213.675 212.026L465.848 120.242C473.38 117.501 481.82 119.921 486.754 126.237L651.971 337.705C656.906 344.021 657.212 352.796 652.73 359.44L502.667 581.919C498.185 588.563 489.934 591.566 482.23 589.357L224.268 515.388C216.564 513.178 211.159 506.26 210.879 498.25L201.513 230.056C201.234 222.046 206.143 214.767 213.675 212.026Z" stroke="url(#paint42_linear_527_222)" stroke-width="3"/>
<path opacity="0.444444" d="M213.645 209.921L466.827 122.744C474.405 120.135 482.801 122.702 487.625 129.103L648.773 342.953C653.596 349.354 653.749 358.133 649.152 364.698L495.566 584.042C490.969 590.607 482.667 593.466 475.002 591.123L218.933 512.834C211.268 510.491 205.984 503.479 205.844 495.465L201.171 227.736C201.031 219.723 206.067 212.531 213.645 209.921Z" stroke="url(#paint43_linear_527_222)" stroke-width="3"/>
<path opacity="0.454545" d="M213.665 207.877L467.77 125.313C475.393 122.837 483.743 125.55 488.454 132.034L645.499 348.189C650.21 354.673 650.21 363.453 645.499 369.937L488.454 586.091C483.743 592.575 475.393 595.289 467.77 592.812L213.665 510.248C206.042 507.771 200.882 500.668 200.882 492.654L200.882 225.472C200.882 217.457 206.042 210.354 213.665 207.877Z" stroke="url(#paint44_linear_527_222)" stroke-width="3"/>
<path opacity="0.464646" d="M213.732 205.892L468.677 127.948C476.342 125.604 484.644 128.463 489.241 135.028L642.153 353.409C646.75 359.975 646.597 368.753 641.773 375.154L481.333 588.066C476.509 594.467 468.113 597.034 460.535 594.424L208.465 507.63C200.887 505.02 195.851 497.828 195.991 489.815L200.644 223.261C200.784 215.248 206.067 208.235 213.732 205.892Z" stroke="url(#paint45_linear_527_222)" stroke-width="3"/>
<path opacity="0.474747" d="M213.844 203.968L469.546 130.646C477.25 128.437 485.501 131.44 489.982 138.085L638.731 358.614C643.213 365.259 642.907 374.033 637.972 380.349L474.202 589.965C469.268 596.281 460.828 598.701 453.297 595.959L203.333 504.98C195.801 502.239 190.891 494.96 191.171 486.95L200.455 221.105C200.734 213.096 206.14 206.177 213.844 203.968Z" stroke="url(#paint46_linear_527_222)" stroke-width="3"/>
<path opacity="0.484848" d="M214.002 202.105L470.377 133.41C478.119 131.335 486.316 134.482 490.681 141.204L635.238 363.802C639.603 370.524 639.144 379.292 634.1 385.521L467.066 591.79C462.023 598.018 453.542 600.291 446.059 597.419L198.27 502.301C190.787 499.429 186.005 492.065 186.425 484.062L200.316 219.007C200.735 211.003 206.261 204.18 214.002 202.105Z" stroke="url(#paint47_linear_527_222)" stroke-width="3"/>
<path opacity="0.494949" d="M214.205 200.304L471.169 136.236C478.946 134.297 487.087 137.586 491.334 144.383L631.673 368.972C635.92 375.769 635.307 384.528 630.156 390.668L459.926 593.54C454.774 599.679 446.255 601.803 438.824 598.801L193.277 499.594C185.845 496.591 181.193 489.145 181.752 481.15L200.226 216.964C200.785 208.969 206.428 202.243 214.205 200.304Z" stroke="url(#paint48_linear_527_222)" stroke-width="3"/>
<path opacity="0.50505" d="M214.45 198.568L471.921 139.126C479.73 137.323 487.812 140.754 491.94 147.624L628.035 374.125C632.163 380.994 631.398 389.741 626.14 395.79L452.781 595.217C447.523 601.265 438.968 603.24 431.59 600.109L188.353 496.861C180.975 493.729 176.453 486.203 177.152 478.219L200.182 214.982C200.881 206.997 206.641 200.371 214.45 198.568Z" stroke="url(#paint49_linear_527_222)" stroke-width="3"/>
<path opacity="0.515152" d="M214.736 196.895L472.63 142.078C480.47 140.411 488.491 143.983 492.498 150.923L624.326 379.256C628.333 386.197 627.415 394.929 622.052 400.885L445.633 596.819C440.27 602.775 431.682 604.6 424.36 601.34L183.499 494.102C176.177 490.842 171.787 483.239 172.625 475.268L200.184 213.057C201.022 205.086 206.897 198.561 214.736 196.895Z" stroke="url(#paint50_linear_527_222)" stroke-width="3"/>
<path opacity="0.525253" d="M215.063 195.285L473.297 145.089C481.164 143.56 489.122 147.271 493.008 154.281L620.545 384.365C624.431 391.374 623.361 400.089 617.895 405.951L438.483 598.346C433.017 604.208 424.398 605.883 417.135 602.496L178.714 491.319C171.451 487.931 167.194 480.252 168.171 472.297L200.231 211.191C201.207 203.236 207.195 196.814 215.063 195.285Z" stroke="url(#paint51_linear_527_222)" stroke-width="3"/>
<path opacity="0.535354" d="M215.428 193.741L473.92 148.162C481.813 146.77 489.704 150.619 493.467 157.695L616.694 389.451C620.456 396.528 619.235 405.222 613.667 410.988L431.333 599.8C425.766 605.565 417.119 607.09 409.916 603.576L174 488.513C166.797 484.999 162.675 477.247 163.79 469.31L200.32 209.385C201.436 201.448 207.535 195.133 215.428 193.741Z" stroke="url(#paint52_linear_527_222)" stroke-width="3"/>
<path opacity="0.545455" d="M215.832 192.261L474.5 151.293C482.416 150.039 490.239 154.025 493.877 161.166L612.774 394.513C616.412 401.655 615.039 410.326 609.372 415.994L424.186 601.179C418.519 606.847 409.847 608.22 402.706 604.582L169.358 485.685C162.217 482.046 158.231 474.223 159.485 466.307L200.454 207.64C201.707 199.724 207.916 193.515 215.832 192.261Z" stroke="url(#paint53_linear_527_222)" stroke-width="3"/>
<path opacity="0.555556" d="M216.271 190.848L475.032 154.481C482.969 153.366 490.721 157.488 494.235 164.691L608.783 399.55C612.296 406.754 610.772 415.4 605.007 420.968L417.04 602.485C411.275 608.052 402.58 609.274 395.504 605.512L164.786 482.837C157.709 479.074 153.86 471.183 155.252 463.29L200.627 205.955C202.019 198.062 208.335 191.963 216.271 190.848Z" stroke="url(#paint54_linear_527_222)" stroke-width="3"/>
<path opacity="0.565657" d="M216.746 189.501L475.519 157.728C483.474 156.751 491.154 161.008 494.541 168.272L604.724 404.561C608.111 411.825 606.436 420.443 600.574 425.909L409.899 603.718C404.037 609.184 395.322 610.254 388.313 606.368L160.285 479.97C153.275 476.085 149.565 468.127 151.094 460.26L200.841 204.333C202.37 196.466 208.791 190.478 216.746 189.501Z" stroke="url(#paint55_linear_527_222)" stroke-width="3"/>
<path opacity="0.575758" d="M217.256 188.221L475.959 161.03C483.93 160.192 491.534 164.582 494.794 171.904L600.598 409.543C603.857 416.865 602.032 425.453 596.076 430.816L402.763 604.876C396.807 610.239 388.075 611.157 381.134 607.149L155.856 477.085C148.915 473.078 145.344 465.057 147.01 457.217L201.094 202.773C202.76 194.934 209.285 189.059 217.256 188.221Z" stroke="url(#paint56_linear_527_222)" stroke-width="3"/>
<path opacity="0.585859" d="M217.798 187.009L476.351 164.388C484.335 163.69 491.861 168.212 494.993 175.589L596.403 414.498C599.535 421.875 597.56 430.43 591.511 435.689L395.633 605.963C389.584 611.221 380.838 611.986 373.968 607.858L151.498 474.185C144.628 470.057 141.197 461.975 143 454.165L201.384 201.277C203.187 193.467 209.813 187.707 217.798 187.009Z" stroke="url(#paint57_linear_527_222)" stroke-width="3"/>
<path opacity="0.59596" d="M218.371 185.864L476.693 167.8C484.688 167.241 492.134 171.893 495.136 179.325L592.142 419.422C595.144 426.853 593.02 435.372 586.881 440.524L388.511 606.976C382.372 612.127 373.613 612.74 366.816 608.493L147.211 471.268C140.415 467.021 137.125 458.881 139.064 451.104L201.711 199.843C203.65 192.066 210.376 186.423 218.371 185.864Z" stroke="url(#paint58_linear_527_222)" stroke-width="3"/>
<path opacity="0.606061" d="M218.975 184.787L476.986 171.265C484.99 170.846 492.353 175.628 495.225 183.11L587.815 424.315C590.687 431.797 588.415 440.278 582.186 445.322L381.399 607.916C375.17 612.96 366.402 613.42 359.681 609.055L142.997 468.339C136.276 463.974 133.129 455.777 135.203 448.035L202.073 198.474C204.148 190.732 210.971 185.207 218.975 184.787Z" stroke="url(#paint59_linear_527_222)" stroke-width="3"/>
<path opacity="0.616162" d="M219.607 183.779L477.227 174.783C485.237 174.503 492.516 179.413 495.257 186.944L583.422 429.176C586.164 436.707 583.743 445.147 577.428 450.081L374.296 608.785C367.981 613.719 359.206 614.026 352.562 609.544L138.854 465.396C132.21 460.915 129.207 452.664 131.416 444.96L202.469 197.168C204.678 189.464 211.597 184.059 219.607 183.779Z" stroke="url(#paint60_linear_527_222)" stroke-width="3"/>
<path opacity="0.626263" d="M220.267 182.84L477.417 178.352C485.431 178.212 492.623 183.248 495.232 190.826L578.965 434.004C581.574 441.582 579.007 449.978 572.606 454.801L367.206 609.582C360.805 614.405 352.026 614.559 345.461 609.962L134.783 462.444C128.218 457.847 125.36 449.545 127.703 441.88L202.898 195.929C205.241 188.264 212.253 182.98 220.267 182.84Z" stroke="url(#paint61_linear_527_222)" stroke-width="3"/>
<path opacity="0.636364" d="M220.953 181.971L477.555 181.971C485.57 181.971 492.673 187.132 495.15 194.755L574.444 438.798C576.921 446.42 574.207 454.77 567.723 459.481L360.128 610.308C353.644 615.019 344.864 615.019 338.38 610.308L130.785 459.481C124.301 454.77 121.587 446.42 124.064 438.798L203.358 194.755C205.835 187.132 212.938 181.971 220.953 181.971Z" stroke="url(#paint62_linear_527_222)" stroke-width="3"/>
<path opacity="0.646465" d="M221.664 181.171L477.64 185.639C485.653 185.779 492.665 191.063 495.008 198.728L569.86 443.555C572.203 451.22 569.344 459.521 562.779 464.118L353.065 610.962C346.499 615.559 337.721 615.406 331.32 610.583L126.858 456.509C120.457 451.686 117.89 443.29 120.499 435.712L203.849 193.645C206.459 186.067 213.651 181.031 221.664 181.171Z" stroke="url(#paint63_linear_527_222)" stroke-width="3"/>
<path opacity="0.656566" d="M222.399 180.442L477.669 189.356C485.679 189.636 492.598 195.041 494.807 202.745L565.212 448.277C567.421 455.981 564.418 464.232 557.774 468.714L346.016 611.546C339.371 616.028 330.597 615.721 324.281 610.787L123.002 453.531C116.687 448.597 114.266 440.157 117.008 432.625L204.369 192.603C207.11 185.072 214.389 180.162 222.399 180.442Z" stroke="url(#paint64_linear_527_222)" stroke-width="3"/>
<path opacity="0.666667" d="M223.156 179.781L477.645 193.119C485.649 193.538 492.472 199.063 494.547 206.805L560.504 452.96C562.578 460.702 559.432 468.899 552.71 473.264L338.984 612.059C332.263 616.424 323.495 615.964 317.266 610.921L119.219 450.545C112.991 445.502 110.718 437.021 113.591 429.538L204.916 191.626C207.789 184.144 215.152 179.362 223.156 179.781Z" stroke="url(#paint65_linear_527_222)" stroke-width="3"/>
<path opacity="0.676768" d="M223.934 179.192L477.566 196.928C485.561 197.487 492.287 203.131 494.226 210.908L555.735 457.606C557.674 465.383 554.385 473.523 547.588 477.77L331.971 612.503C325.174 616.75 316.415 616.137 310.276 610.986L115.508 447.556C109.369 442.405 107.245 433.886 110.247 426.454L205.491 190.717C208.493 183.286 215.939 178.633 223.934 179.192Z" stroke="url(#paint66_linear_527_222)" stroke-width="3"/>
<path opacity="0.686869" d="M224.732 178.674L477.43 200.782C485.414 201.481 492.04 207.241 493.843 215.05L550.905 462.212C552.708 470.021 549.277 478.103 542.407 482.231L324.976 612.877C318.106 617.005 309.359 616.24 303.31 610.982L111.868 444.564C105.82 439.306 103.844 430.751 106.976 423.373L206.09 189.875C209.222 182.497 216.748 177.975 224.732 178.674Z" stroke="url(#paint67_linear_527_222)" stroke-width="3"/>
<path opacity="0.69697" d="M225.549 178.226L477.238 204.68C485.208 205.517 491.733 211.392 493.4 219.232L546.017 466.777C547.683 474.616 544.112 482.637 537.171 486.645L318.002 613.182C311.061 617.19 302.329 616.272 296.373 610.909L108.301 441.569C102.345 436.206 100.52 427.618 103.779 420.296L206.714 189.1C209.974 181.778 217.578 177.388 225.549 178.226Z" stroke="url(#paint68_linear_527_222)" stroke-width="3"/>
<path opacity="0.707071" d="M226.381 177.85L476.986 208.621C484.941 209.598 491.363 215.586 492.892 223.453L541.069 471.302C542.598 479.169 538.888 487.126 531.878 491.012L311.047 613.42C304.038 617.306 295.323 616.236 289.461 610.77L104.804 438.574C98.9422 433.108 97.2669 424.489 100.654 417.225L207.36 188.394C210.747 181.13 218.426 176.874 226.381 177.85Z" stroke="url(#paint69_linear_527_222)" stroke-width="3"/>
<path opacity="0.717172" d="M227.231 177.545L476.679 212.602C484.615 213.718 490.931 219.817 492.323 227.71L536.065 475.783C537.457 483.675 533.608 491.567 526.531 495.33L304.117 613.589C297.04 617.352 288.346 616.13 282.581 610.563L101.379 435.578C95.6139 430.011 94.0892 421.364 97.6026 414.161L208.028 187.755C211.542 180.551 219.294 176.429 227.231 177.545Z" stroke="url(#paint70_linear_527_222)" stroke-width="3"/>
<path opacity="0.727273" d="M228.094 177.311L476.312 216.625C484.228 217.879 490.436 224.087 491.69 232.003L531.004 480.221C532.258 488.137 528.272 495.96 521.13 499.599L297.21 613.692C290.069 617.331 281.397 615.957 275.73 610.29L98.0253 432.586C92.3581 426.918 90.9846 418.246 94.6232 411.105L208.716 187.185C212.355 180.044 220.178 176.058 228.094 177.311Z" stroke="url(#paint71_linear_527_222)" stroke-width="3"/>
<path opacity="0.737374" d="M228.971 177.149L475.886 220.687C483.779 222.079 489.878 228.394 490.994 236.331L525.888 484.615C527.003 492.552 522.881 500.304 515.678 503.818L290.329 613.728C283.125 617.241 274.478 615.717 268.911 609.951L94.7433 429.595C89.1758 423.83 87.9539 415.136 91.7165 408.059L209.424 186.683C213.187 179.606 221.078 175.757 228.971 177.149Z" stroke="url(#paint72_linear_527_222)" stroke-width="3"/>
<path opacity="0.747475" d="M229.86 177.059L475.4 224.788C483.268 226.317 489.256 232.738 490.232 240.693L520.716 488.965C521.693 496.92 517.436 504.599 510.173 507.986L283.472 613.698C276.208 617.085 267.59 615.41 262.124 609.549L91.5311 426.61C86.0651 420.749 84.995 412.034 88.8806 405.025L210.149 186.25C214.035 179.241 221.992 175.53 229.86 177.059Z" stroke="url(#paint73_linear_527_222)" stroke-width="3"/>
<path opacity="0.757576" d="M230.758 177.04L474.854 228.924C482.693 230.59 488.568 237.115 489.406 245.086L515.491 493.267C516.329 501.238 511.939 508.841 504.617 512.101L276.643 613.602C269.321 616.862 260.733 615.036 255.37 609.08L88.3896 423.63C83.0267 417.673 82.109 408.942 86.1163 402.001L210.891 185.885C214.898 178.944 222.919 175.373 230.758 177.04Z" stroke="url(#paint74_linear_527_222)" stroke-width="3"/>
<path opacity="0.767677" d="M231.667 177.092L474.247 233.096C482.056 234.899 487.816 241.526 488.515 249.51L510.213 497.523C510.912 505.507 506.39 513.033 499.012 516.165L269.842 613.442C262.465 616.573 253.91 614.598 248.652 608.549L85.3189 420.656C80.0608 414.608 79.2956 405.861 83.4234 398.991L211.648 185.59C215.776 178.72 223.858 175.289 231.667 177.092Z" stroke="url(#paint75_linear_527_222)" stroke-width="3"/>
<path opacity="0.777778" d="M232.583 177.217L473.578 237.304C481.355 239.243 486.998 245.969 487.558 253.964L504.883 501.732C505.442 509.727 500.79 517.173 493.358 520.176L263.071 613.218C255.64 616.22 247.121 614.096 241.969 607.956L82.318 417.692C77.1663 411.552 76.5538 402.793 80.8009 395.997L212.419 185.364C216.666 178.568 224.806 175.279 232.583 177.217Z" stroke="url(#paint76_linear_527_222)" stroke-width="3"/>
<path opacity="0.787879" d="M233.506 177.414L472.848 241.546C480.589 243.62 486.115 250.443 486.534 258.447L499.502 505.893C499.922 513.896 495.14 521.26 487.658 524.132L256.33 612.93C248.848 615.803 240.367 613.53 235.323 607.302L79.3869 414.736C74.3431 408.508 73.8836 399.74 78.2487 393.018L213.202 185.208C217.567 178.486 225.764 175.34 233.506 177.414Z" stroke="url(#paint77_linear_527_222)" stroke-width="3"/>
<path opacity="0.79798" d="M234.433 177.681L472.054 245.818C479.759 248.027 485.164 254.946 485.444 262.956L494.071 510.003C494.351 518.012 489.441 525.291 481.91 528.033L249.62 612.579C242.089 615.32 233.649 612.9 228.714 606.584L76.5246 411.79C71.5902 405.475 71.2838 396.7 75.7655 390.055L213.997 185.12C218.478 178.475 226.729 175.472 234.433 177.681Z" stroke="url(#paint78_linear_527_222)" stroke-width="3"/>
<path opacity="0.808081" d="M235.365 178.021L471.199 250.123C478.863 252.466 484.147 259.478 484.287 267.492L488.591 514.064C488.731 522.077 483.695 529.269 476.117 531.879L242.943 612.167C235.365 614.776 226.969 612.209 222.145 605.808L73.732 408.857C68.9086 402.456 68.7554 393.678 73.3524 387.112L214.802 185.102C219.399 178.536 227.701 175.678 235.365 178.021Z" stroke="url(#paint79_linear_527_222)" stroke-width="3"/>
<path opacity="0.818182" d="M236.3 178.432L470.281 254.457C477.903 256.933 483.064 264.036 483.064 272.051L483.064 518.073C483.064 526.088 477.903 533.191 470.28 535.667L236.3 611.692C228.677 614.169 220.327 611.456 215.616 604.972L71.0082 405.936C66.2973 399.452 66.2973 390.672 71.0082 384.188L215.616 185.152C220.327 178.668 228.677 175.955 236.3 178.432Z" stroke="url(#paint80_linear_527_222)" stroke-width="3"/>
<path opacity="0.828283" d="M237.236 178.914L469.298 258.819C476.876 261.429 481.912 268.621 481.772 276.634L477.489 522.031C477.349 530.045 472.065 537.057 464.4 539.4L229.691 611.158C222.026 613.501 213.724 610.643 209.127 604.077L68.3523 403.03C63.7553 396.464 63.9085 387.686 68.7319 381.285L216.438 185.272C221.261 178.872 229.657 176.305 237.236 178.914Z" stroke="url(#paint81_linear_527_222)" stroke-width="3"/>
<path opacity="0.838384" d="M238.172 179.467L468.252 263.209C475.784 265.95 480.693 273.229 480.414 281.239L471.869 525.936C471.589 533.946 466.183 540.865 458.479 543.074L223.118 610.563C215.414 612.772 207.163 609.769 202.681 603.125L65.7652 400.138C61.2834 393.493 61.5898 384.719 66.5242 378.403L217.267 185.461C222.201 179.146 230.641 176.726 238.172 179.467Z" stroke="url(#paint82_linear_527_222)" stroke-width="3"/>
<path opacity="0.848485" d="M239.107 180.092L467.142 267.626C474.624 270.499 479.406 277.862 478.987 285.866L466.203 529.79C465.784 537.793 460.258 544.617 452.517 546.691L216.581 609.91C208.84 611.984 200.643 608.838 196.278 602.116L63.2449 397.264C58.8798 390.542 59.3393 381.774 64.3831 375.545L218.1 185.721C223.144 179.492 231.625 177.22 239.107 180.092Z" stroke="url(#paint83_linear_527_222)" stroke-width="3"/>
<path opacity="0.858586" d="M240.039 180.787L465.966 272.067C473.398 275.07 478.05 282.516 477.491 290.511L460.494 533.588C459.935 541.583 454.291 548.309 446.514 550.248L210.082 609.197C202.305 611.136 194.164 607.847 189.917 601.05L60.7914 394.406C56.5443 387.609 57.1567 378.85 62.3085 372.711L218.937 186.048C224.089 179.909 232.608 177.785 240.039 180.787Z" stroke="url(#paint84_linear_527_222)" stroke-width="3"/>
<path opacity="0.868687" d="M240.968 181.553L464.727 276.533C472.104 279.665 476.626 287.191 475.928 295.175L454.742 537.333C454.043 545.317 448.283 551.943 440.474 553.746L203.621 608.428C195.812 610.231 187.73 606.8 183.602 599.93L58.4048 391.568C54.2769 384.698 55.0421 375.951 60.3003 369.902L219.777 186.445C225.035 180.397 233.59 178.421 240.968 181.553Z" stroke="url(#paint85_linear_527_222)" stroke-width="3"/>
<path opacity="0.878788" d="M241.891 182.39L463.421 281.022C470.743 284.282 475.133 291.885 474.295 299.856L448.948 541.023C448.11 548.994 442.235 555.518 434.395 557.185L197.199 607.602C189.36 609.269 181.339 605.698 177.332 598.757L56.084 388.75C52.0767 381.809 52.9944 373.077 58.3573 367.121L220.618 186.912C225.981 180.956 234.569 179.13 241.891 182.39Z" stroke="url(#paint86_linear_527_222)" stroke-width="3"/>
<path opacity="0.888889" d="M242.807 183.297L462.05 285.531C469.314 288.918 473.57 296.598 472.594 304.553L443.112 544.657C442.136 552.612 436.148 559.033 428.28 560.562L190.818 606.72C182.95 608.25 174.993 604.539 171.107 597.529L53.8281 385.952C49.9425 378.942 51.0125 370.228 56.4785 364.366L221.459 187.447C226.925 181.585 235.544 179.91 242.807 183.297Z" stroke="url(#paint87_linear_527_222)" stroke-width="3"/>
<path opacity="0.89899" d="M243.717 184.274L460.614 290.061C467.817 293.575 471.939 301.327 470.824 309.264L437.239 548.235C436.123 556.171 430.024 562.487 422.131 563.879L184.478 605.784C176.585 607.175 168.693 603.326 164.931 596.25L51.6381 383.177C47.8754 376.101 49.0973 367.406 54.6648 361.641L222.299 188.05C227.867 182.285 236.514 180.76 243.717 184.274Z" stroke="url(#paint88_linear_527_222)" stroke-width="3"/>
<path opacity="0.909091" d="M244.618 185.321L459.112 294.611C466.253 298.25 470.239 306.073 468.985 313.989L431.327 551.757C430.073 559.673 423.864 565.881 415.948 567.135L178.18 604.794C170.264 606.047 162.441 602.061 158.803 594.92L49.5128 380.427C45.8742 373.286 47.2477 364.614 52.915 358.946L223.138 188.723C228.805 183.056 237.477 181.683 244.618 185.321Z" stroke="url(#paint89_linear_527_222)" stroke-width="3"/>
<path opacity="0.919192" d="M245.508 186.436L457.543 299.177C464.62 302.94 468.468 310.831 467.077 318.724L425.376 555.22C423.984 563.113 417.669 569.212 409.732 570.327L171.925 603.749C163.988 604.864 156.236 600.742 152.723 593.539L47.4505 377.699C43.9371 370.495 45.4617 361.848 51.227 356.281L223.972 189.463C229.737 183.896 238.432 182.674 245.508 186.436Z" stroke="url(#paint90_linear_527_222)" stroke-width="3"/>
<path opacity="0.929293" d="M246.388 187.621L455.908 303.76C462.918 307.646 466.629 315.603 465.1 323.471L419.39 558.626C417.861 566.493 411.44 572.481 403.485 573.458L165.714 602.652C157.759 603.629 150.08 599.372 146.693 592.109L45.452 374.997C42.0648 367.733 43.7401 359.115 49.6017 353.649L224.802 190.272C230.664 184.806 239.378 183.736 246.388 187.621Z" stroke="url(#paint91_linear_527_222)" stroke-width="3"/>
<path opacity="0.939394" d="M247.255 188.875L454.208 308.359C461.149 312.367 464.72 320.388 463.053 328.227L413.369 561.973C411.703 569.813 405.178 575.688 397.207 576.526L159.548 601.505C151.577 602.342 143.973 597.952 140.714 590.631L43.5163 372.322C40.2564 365 42.0819 356.412 48.038 351.049L225.626 191.148C231.582 185.785 240.314 184.868 247.255 188.875Z" stroke="url(#paint92_linear_527_222)" stroke-width="3"/>
<path opacity="0.949495" d="M248.108 190.198L452.44 312.973C459.31 317.101 462.741 325.183 460.938 332.992L407.314 565.263C405.511 573.073 398.885 578.833 390.9 579.531L153.427 600.308C145.443 601.006 137.917 596.484 134.785 589.106L41.6425 369.676C38.5109 362.298 40.486 353.743 46.5347 348.485L226.443 192.094C232.492 186.835 241.238 186.07 248.108 190.198Z" stroke="url(#paint93_linear_527_222)" stroke-width="3"/>
<path opacity="0.959596" d="M248.947 191.587L450.606 317.598C457.403 321.845 460.692 329.986 458.753 337.763L401.226 568.492C399.287 576.269 392.561 581.912 384.566 582.471L147.353 599.059C139.357 599.618 131.912 594.965 128.909 587.534L39.8304 367.057C36.8281 359.626 38.9522 351.106 45.0918 345.955L227.252 193.104C233.391 187.953 242.15 187.34 248.947 191.587Z" stroke="url(#paint94_linear_527_222)" stroke-width="3"/>
<path opacity="0.969697" d="M249.769 193.045L448.706 322.236C455.428 326.601 458.574 334.798 456.5 342.54L395.107 571.662C393.032 579.404 386.209 584.929 378.205 585.349L141.325 597.763C133.322 598.182 125.958 593.401 123.086 585.918L38.0792 364.468C35.207 356.986 37.4794 348.505 43.708 343.461L228.051 194.183C234.28 189.139 243.048 188.68 249.769 193.045Z" stroke="url(#paint95_linear_527_222)" stroke-width="3"/>
<path opacity="0.979798" d="M250.574 194.568L446.739 326.883C453.383 331.365 456.386 339.615 454.177 347.319L388.956 574.77C386.747 582.475 379.828 587.88 371.819 588.16L135.346 596.418C127.336 596.697 120.057 591.788 117.316 584.256L36.3878 361.909C33.6466 354.378 36.0667 345.938 42.3823 341.003L228.839 195.327C235.155 190.393 243.93 190.086 250.574 194.568Z" stroke="url(#paint96_linear_527_222)" stroke-width="3"/>
<path opacity="0.989899" d="M251.361 196.16L444.705 331.54C451.27 336.137 454.129 344.439 451.785 352.104L382.777 577.82C380.434 585.484 373.422 590.768 365.408 590.908L129.415 595.027C121.401 595.167 114.209 590.131 111.6 582.553L34.7561 359.383C32.1467 351.805 34.7138 343.408 41.1146 338.585L229.616 196.539C236.017 191.716 244.796 191.562 251.361 196.16Z" stroke="url(#paint97_linear_527_222)" stroke-width="3"/>
<path d="M252.128 197.817L442.604 336.206C449.088 340.917 451.801 349.267 449.325 356.889L376.569 580.808C374.093 588.43 366.989 593.591 358.975 593.591H123.533C115.518 593.591 108.415 588.43 105.939 580.808L33.1831 356.889C30.7064 349.267 33.4196 340.917 39.9036 336.206L230.38 197.817C236.864 193.106 245.644 193.106 252.128 197.817Z" stroke="url(#paint98_linear_527_222)" stroke-width="3"/>
<defs>
<linearGradient id="paint0_linear_527_222" x1="558.066" y1="473.303" x2="512.706" y2="150.554" gradientUnits="userSpaceOnUse">
<stop stop-color="#FF1CF7"/>
<stop offset="1" stop-color="#00F0FF"/>
</linearGradient>
<linearGradient id="paint1_linear_527_222" x1="552.265" y1="474.387" x2="512.617" y2="151.486" gradientUnits="userSpaceOnUse">
<stop stop-color="#FF1CF7"/>
<stop offset="1" stop-color="#00F0FF"/>
</linearGradient>
<linearGradient id="paint2_linear_527_222" x1="546.466" y1="475.422" x2="512.522" y2="152.469" gradientUnits="userSpaceOnUse">
<stop stop-color="#FF1CF7"/>
<stop offset="1" stop-color="#00F0FF"/>
</linearGradient>
<linearGradient id="paint3_linear_527_222" x1="540.674" y1="476.409" x2="512.424" y2="153.505" gradientUnits="userSpaceOnUse">
<stop stop-color="#FF1CF7"/>
<stop offset="1" stop-color="#00F0FF"/>
</linearGradient>
<linearGradient id="paint4_linear_527_222" x1="534.887" y1="477.346" x2="512.318" y2="154.592" gradientUnits="userSpaceOnUse">
<stop stop-color="#FF1CF7"/>
<stop offset="1" stop-color="#00F0FF"/>
</linearGradient>
<linearGradient id="paint5_linear_527_222" x1="529.106" y1="478.233" x2="512.204" y2="155.728" gradientUnits="userSpaceOnUse">
<stop stop-color="#FF1CF7"/>
<stop offset="1" stop-color="#00F0FF"/>
</linearGradient>
<linearGradient id="paint6_linear_527_222" x1="523.333" y1="479.071" x2="512.083" y2="156.915" gradientUnits="userSpaceOnUse">
<stop stop-color="#FF1CF7"/>
<stop offset="1" stop-color="#00F0FF"/>
</linearGradient>
<linearGradient id="paint7_linear_527_222" x1="517.568" y1="479.862" x2="511.953" y2="158.153" gradientUnits="userSpaceOnUse">
<stop stop-color="#FF1CF7"/>
<stop offset="1" stop-color="#00F0FF"/>
</linearGradient>
<linearGradient id="paint8_linear_527_222" x1="511.813" y1="480.604" x2="511.813" y2="159.441" gradientUnits="userSpaceOnUse">
<stop stop-color="#FF1CF7"/>
<stop offset="1" stop-color="#00F0FF"/>
</linearGradient>
<linearGradient id="paint9_linear_527_222" x1="506.068" y1="481.298" x2="511.662" y2="160.778" gradientUnits="userSpaceOnUse">
<stop stop-color="#FF1CF7"/>
<stop offset="1" stop-color="#00F0FF"/>
</linearGradient>
<linearGradient id="paint10_linear_527_222" x1="500.332" y1="481.945" x2="511.499" y2="162.166" gradientUnits="userSpaceOnUse">
<stop stop-color="#FF1CF7"/>
<stop offset="1" stop-color="#00F0FF"/>
</linearGradient>
<linearGradient id="paint11_linear_527_222" x1="494.609" y1="482.543" x2="511.324" y2="163.601" gradientUnits="userSpaceOnUse">
<stop stop-color="#FF1CF7"/>
<stop offset="1" stop-color="#00F0FF"/>
</linearGradient>
<linearGradient id="paint12_linear_527_222" x1="488.899" y1="483.095" x2="511.136" y2="165.087" gradientUnits="userSpaceOnUse">
<stop stop-color="#FF1CF7"/>
<stop offset="1" stop-color="#00F0FF"/>
</linearGradient>
<linearGradient id="paint13_linear_527_222" x1="483.201" y1="483.6" x2="510.933" y2="166.621" gradientUnits="userSpaceOnUse">
<stop stop-color="#FF1CF7"/>
<stop offset="1" stop-color="#00F0FF"/>
</linearGradient>
<linearGradient id="paint14_linear_527_222" x1="477.519" y1="484.058" x2="510.717" y2="168.203" gradientUnits="userSpaceOnUse">
<stop stop-color="#FF1CF7"/>
<stop offset="1" stop-color="#00F0FF"/>
</linearGradient>
<linearGradient id="paint15_linear_527_222" x1="471.85" y1="484.47" x2="510.483" y2="169.833" gradientUnits="userSpaceOnUse">
<stop stop-color="#FF1CF7"/>
<stop offset="1" stop-color="#00F0FF"/>
</linearGradient>
<linearGradient id="paint16_linear_527_222" x1="466.198" y1="484.837" x2="510.233" y2="171.511" gradientUnits="userSpaceOnUse">
<stop stop-color="#FF1CF7"/>
<stop offset="1" stop-color="#00F0FF"/>
</linearGradient>
<linearGradient id="paint17_linear_527_222" x1="460.562" y1="485.158" x2="509.966" y2="173.235" gradientUnits="userSpaceOnUse">
<stop stop-color="#FF1CF7"/>
<stop offset="1" stop-color="#00F0FF"/>
</linearGradient>
<linearGradient id="paint18_linear_527_222" x1="454.944" y1="485.434" x2="509.68" y2="175.007" gradientUnits="userSpaceOnUse">
<stop stop-color="#FF1CF7"/>
<stop offset="1" stop-color="#00F0FF"/>
</linearGradient>
<linearGradient id="paint19_linear_527_222" x1="449.343" y1="485.663" x2="509.376" y2="176.823" gradientUnits="userSpaceOnUse">
<stop stop-color="#FF1CF7"/>
<stop offset="1" stop-color="#00F0FF"/>
</linearGradient>
<linearGradient id="paint20_linear_527_222" x1="443.761" y1="485.851" x2="509.051" y2="178.687" gradientUnits="userSpaceOnUse">
<stop stop-color="#FF1CF7"/>
<stop offset="1" stop-color="#00F0FF"/>
</linearGradient>
<linearGradient id="paint21_linear_527_222" x1="438.199" y1="485.993" x2="508.706" y2="180.595" gradientUnits="userSpaceOnUse">
<stop stop-color="#FF1CF7"/>
<stop offset="1" stop-color="#00F0FF"/>
</linearGradient>
<linearGradient id="paint22_linear_527_222" x1="432.657" y1="486.093" x2="508.339" y2="182.549" gradientUnits="userSpaceOnUse">
<stop stop-color="#FF1CF7"/>
<stop offset="1" stop-color="#00F0FF"/>
</linearGradient>
<linearGradient id="paint23_linear_527_222" x1="427.136" y1="486.15" x2="507.95" y2="184.548" gradientUnits="userSpaceOnUse">
<stop stop-color="#FF1CF7"/>
<stop offset="1" stop-color="#00F0FF"/>
</linearGradient>
<linearGradient id="paint24_linear_527_222" x1="421.638" y1="486.164" x2="507.539" y2="186.589" gradientUnits="userSpaceOnUse">
<stop stop-color="#FF1CF7"/>
<stop offset="1" stop-color="#00F0FF"/>
</linearGradient>
<linearGradient id="paint25_linear_527_222" x1="416.16" y1="486.135" x2="507.103" y2="188.674" gradientUnits="userSpaceOnUse">
<stop stop-color="#FF1CF7"/>
<stop offset="1" stop-color="#00F0FF"/>
</linearGradient>
<linearGradient id="paint26_linear_527_222" x1="410.708" y1="486.066" x2="506.644" y2="190.803" gradientUnits="userSpaceOnUse">
<stop stop-color="#FF1CF7"/>
<stop offset="1" stop-color="#00F0FF"/>
</linearGradient>
<linearGradient id="paint27_linear_527_222" x1="405.278" y1="485.956" x2="506.159" y2="192.974" gradientUnits="userSpaceOnUse">
<stop stop-color="#FF1CF7"/>
<stop offset="1" stop-color="#00F0FF"/>
</linearGradient>
<linearGradient id="paint28_linear_527_222" x1="399.873" y1="485.805" x2="505.649" y2="195.188" gradientUnits="userSpaceOnUse">
<stop stop-color="#FF1CF7"/>
<stop offset="1" stop-color="#00F0FF"/>
</linearGradient>
<linearGradient id="paint29_linear_527_222" x1="394.493" y1="485.613" x2="505.112" y2="197.442" gradientUnits="userSpaceOnUse">
<stop stop-color="#FF1CF7"/>
<stop offset="1" stop-color="#00F0FF"/>
</linearGradient>
<linearGradient id="paint30_linear_527_222" x1="389.139" y1="485.383" x2="504.547" y2="199.737" gradientUnits="userSpaceOnUse">
<stop stop-color="#FF1CF7"/>
<stop offset="1" stop-color="#00F0FF"/>
</linearGradient>
<linearGradient id="paint31_linear_527_222" x1="383.811" y1="485.113" x2="503.955" y2="202.072" gradientUnits="userSpaceOnUse">
<stop stop-color="#FF1CF7"/>
<stop offset="1" stop-color="#00F0FF"/>
</linearGradient>
<linearGradient id="paint32_linear_527_222" x1="378.512" y1="484.805" x2="503.335" y2="204.448" gradientUnits="userSpaceOnUse">
<stop stop-color="#FF1CF7"/>
<stop offset="1" stop-color="#00F0FF"/>
</linearGradient>
<linearGradient id="paint33_linear_527_222" x1="373.239" y1="484.459" x2="502.685" y2="206.861" gradientUnits="userSpaceOnUse">
<stop stop-color="#FF1CF7"/>
<stop offset="1" stop-color="#00F0FF"/>
</linearGradient>
<linearGradient id="paint34_linear_527_222" x1="367.995" y1="484.076" x2="502.005" y2="209.315" gradientUnits="userSpaceOnUse">
<stop stop-color="#FF1CF7"/>
<stop offset="1" stop-color="#00F0FF"/>
</linearGradient>
<linearGradient id="paint35_linear_527_222" x1="362.78" y1="483.656" x2="501.295" y2="211.805" gradientUnits="userSpaceOnUse">
<stop stop-color="#FF1CF7"/>
<stop offset="1" stop-color="#00F0FF"/>
</linearGradient>
<linearGradient id="paint36_linear_527_222" x1="357.595" y1="483.2" x2="500.554" y2="214.334" gradientUnits="userSpaceOnUse">
<stop stop-color="#FF1CF7"/>
<stop offset="1" stop-color="#00F0FF"/>
</linearGradient>
<linearGradient id="paint37_linear_527_222" x1="352.441" y1="482.708" x2="499.782" y2="216.898" gradientUnits="userSpaceOnUse">
<stop stop-color="#FF1CF7"/>
<stop offset="1" stop-color="#00F0FF"/>
</linearGradient>
<linearGradient id="paint38_linear_527_222" x1="347.316" y1="482.182" x2="498.976" y2="219.499" gradientUnits="userSpaceOnUse">
<stop stop-color="#FF1CF7"/>
<stop offset="1" stop-color="#00F0FF"/>
</linearGradient>
<linearGradient id="paint39_linear_527_222" x1="342.223" y1="481.621" x2="498.139" y2="222.134" gradientUnits="userSpaceOnUse">
<stop stop-color="#FF1CF7"/>
<stop offset="1" stop-color="#00F0FF"/>
</linearGradient>
<linearGradient id="paint40_linear_527_222" x1="337.162" y1="481.027" x2="497.267" y2="224.805" gradientUnits="userSpaceOnUse">
<stop stop-color="#FF1CF7"/>
<stop offset="1" stop-color="#00F0FF"/>
</linearGradient>
<linearGradient id="paint41_linear_527_222" x1="332.134" y1="480.4" x2="496.363" y2="227.51" gradientUnits="userSpaceOnUse">
<stop stop-color="#FF1CF7"/>
<stop offset="1" stop-color="#00F0FF"/>
</linearGradient>
<linearGradient id="paint42_linear_527_222" x1="327.138" y1="479.74" x2="495.423" y2="230.248" gradientUnits="userSpaceOnUse">
<stop stop-color="#FF1CF7"/>
<stop offset="1" stop-color="#00F0FF"/>
</linearGradient>
<linearGradient id="paint43_linear_527_222" x1="322.176" y1="479.048" x2="494.448" y2="233.018" gradientUnits="userSpaceOnUse">
<stop stop-color="#FF1CF7"/>
<stop offset="1" stop-color="#00F0FF"/>
</linearGradient>
<linearGradient id="paint44_linear_527_222" x1="317.248" y1="478.327" x2="493.438" y2="235.822" gradientUnits="userSpaceOnUse">
<stop stop-color="#FF1CF7"/>
<stop offset="1" stop-color="#00F0FF"/>
</linearGradient>
<linearGradient id="paint45_linear_527_222" x1="312.355" y1="477.574" x2="492.393" y2="238.656" gradientUnits="userSpaceOnUse">
<stop stop-color="#FF1CF7"/>
<stop offset="1" stop-color="#00F0FF"/>
</linearGradient>
<linearGradient id="paint46_linear_527_222" x1="307.496" y1="476.791" x2="491.309" y2="241.52" gradientUnits="userSpaceOnUse">
<stop stop-color="#FF1CF7"/>
<stop offset="1" stop-color="#00F0FF"/>
</linearGradient>
<linearGradient id="paint47_linear_527_222" x1="302.672" y1="475.979" x2="490.19" y2="244.415" gradientUnits="userSpaceOnUse">
<stop stop-color="#FF1CF7"/>
<stop offset="1" stop-color="#00F0FF"/>
</linearGradient>
<linearGradient id="paint48_linear_527_222" x1="297.885" y1="475.139" x2="489.033" y2="247.338" gradientUnits="userSpaceOnUse">
<stop stop-color="#FF1CF7"/>
<stop offset="1" stop-color="#00F0FF"/>
</linearGradient>
<linearGradient id="paint49_linear_527_222" x1="293.135" y1="474.272" x2="487.839" y2="250.29" gradientUnits="userSpaceOnUse">
<stop stop-color="#FF1CF7"/>
<stop offset="1" stop-color="#00F0FF"/>
</linearGradient>
<linearGradient id="paint50_linear_527_222" x1="288.42" y1="473.378" x2="486.606" y2="253.27" gradientUnits="userSpaceOnUse">
<stop stop-color="#FF1CF7"/>
<stop offset="1" stop-color="#00F0FF"/>
</linearGradient>
<linearGradient id="paint51_linear_527_222" x1="283.743" y1="472.457" x2="485.334" y2="256.277" gradientUnits="userSpaceOnUse">
<stop stop-color="#FF1CF7"/>
<stop offset="1" stop-color="#00F0FF"/>
</linearGradient>
<linearGradient id="paint52_linear_527_222" x1="279.102" y1="471.511" x2="484.022" y2="259.31" gradientUnits="userSpaceOnUse">
<stop stop-color="#FF1CF7"/>
<stop offset="1" stop-color="#00F0FF"/>
</linearGradient>
<linearGradient id="paint53_linear_527_222" x1="274.501" y1="470.54" x2="482.673" y2="262.368" gradientUnits="userSpaceOnUse">
<stop stop-color="#FF1CF7"/>
<stop offset="1" stop-color="#00F0FF"/>
</linearGradient>
<linearGradient id="paint54_linear_527_222" x1="269.936" y1="469.545" x2="481.282" y2="265.451" gradientUnits="userSpaceOnUse">
<stop stop-color="#FF1CF7"/>
<stop offset="1" stop-color="#00F0FF"/>
</linearGradient>
<linearGradient id="paint55_linear_527_222" x1="265.411" y1="468.527" x2="479.851" y2="268.558" gradientUnits="userSpaceOnUse">
<stop stop-color="#FF1CF7"/>
<stop offset="1" stop-color="#00F0FF"/>
</linearGradient>
<linearGradient id="paint56_linear_527_222" x1="260.925" y1="467.486" x2="478.38" y2="271.688" gradientUnits="userSpaceOnUse">
<stop stop-color="#FF1CF7"/>
<stop offset="1" stop-color="#00F0FF"/>
</linearGradient>
<linearGradient id="paint57_linear_527_222" x1="256.478" y1="466.424" x2="476.868" y2="274.841" gradientUnits="userSpaceOnUse">
<stop stop-color="#FF1CF7"/>
<stop offset="1" stop-color="#00F0FF"/>
</linearGradient>
<linearGradient id="paint58_linear_527_222" x1="252.07" y1="465.34" x2="475.315" y2="278.015" gradientUnits="userSpaceOnUse">
<stop stop-color="#FF1CF7"/>
<stop offset="1" stop-color="#00F0FF"/>
</linearGradient>
<linearGradient id="paint59_linear_527_222" x1="247.702" y1="464.236" x2="473.721" y2="281.21" gradientUnits="userSpaceOnUse">
<stop stop-color="#FF1CF7"/>
<stop offset="1" stop-color="#00F0FF"/>
</linearGradient>
<linearGradient id="paint60_linear_527_222" x1="243.375" y1="463.112" x2="472.084" y2="284.425" gradientUnits="userSpaceOnUse">
<stop stop-color="#FF1CF7"/>
<stop offset="1" stop-color="#00F0FF"/>
</linearGradient>
<linearGradient id="paint61_linear_527_222" x1="239.087" y1="461.97" x2="470.405" y2="287.66" gradientUnits="userSpaceOnUse">
<stop stop-color="#FF1CF7"/>
<stop offset="1" stop-color="#00F0FF"/>
</linearGradient>
<linearGradient id="paint62_linear_527_222" x1="234.841" y1="460.81" x2="468.685" y2="290.913" gradientUnits="userSpaceOnUse">
<stop stop-color="#FF1CF7"/>
<stop offset="1" stop-color="#00F0FF"/>
</linearGradient>
<linearGradient id="paint63_linear_527_222" x1="230.635" y1="459.633" x2="466.921" y2="294.183" gradientUnits="userSpaceOnUse">
<stop stop-color="#FF1CF7"/>
<stop offset="1" stop-color="#00F0FF"/>
</linearGradient>
<linearGradient id="paint64_linear_527_222" x1="226.47" y1="458.439" x2="465.115" y2="297.471" gradientUnits="userSpaceOnUse">
<stop stop-color="#FF1CF7"/>
<stop offset="1" stop-color="#00F0FF"/>
</linearGradient>
<linearGradient id="paint65_linear_527_222" x1="222.347" y1="457.228" x2="463.266" y2="300.773" gradientUnits="userSpaceOnUse">
<stop stop-color="#FF1CF7"/>
<stop offset="1" stop-color="#00F0FF"/>
</linearGradient>
<linearGradient id="paint66_linear_527_222" x1="218.265" y1="456.003" x2="461.373" y2="304.092" gradientUnits="userSpaceOnUse">
<stop stop-color="#FF1CF7"/>
<stop offset="1" stop-color="#00F0FF"/>
</linearGradient>
<linearGradient id="paint67_linear_527_222" x1="214.224" y1="454.764" x2="459.437" y2="307.425" gradientUnits="userSpaceOnUse">
<stop stop-color="#FF1CF7"/>
<stop offset="1" stop-color="#00F0FF"/>
</linearGradient>
<linearGradient id="paint68_linear_527_222" x1="210.227" y1="453.511" x2="457.458" y2="310.771" gradientUnits="userSpaceOnUse">
<stop stop-color="#FF1CF7"/>
<stop offset="1" stop-color="#00F0FF"/>
</linearGradient>
<linearGradient id="paint69_linear_527_222" x1="206.269" y1="452.246" x2="455.434" y2="314.132" gradientUnits="userSpaceOnUse">
<stop stop-color="#FF1CF7"/>
<stop offset="1" stop-color="#00F0FF"/>
</linearGradient>
<linearGradient id="paint70_linear_527_222" x1="202.355" y1="450.968" x2="453.368" y2="317.503" gradientUnits="userSpaceOnUse">
<stop stop-color="#FF1CF7"/>
<stop offset="1" stop-color="#00F0FF"/>
</linearGradient>
<linearGradient id="paint71_linear_527_222" x1="198.483" y1="449.68" x2="451.257" y2="320.886" gradientUnits="userSpaceOnUse">
<stop stop-color="#FF1CF7"/>
<stop offset="1" stop-color="#00F0FF"/>
</linearGradient>
<linearGradient id="paint72_linear_527_222" x1="194.654" y1="448.381" x2="449.102" y2="324.279" gradientUnits="userSpaceOnUse">
<stop stop-color="#FF1CF7"/>
<stop offset="1" stop-color="#00F0FF"/>
</linearGradient>
<linearGradient id="paint73_linear_527_222" x1="190.866" y1="447.074" x2="446.903" y2="327.682" gradientUnits="userSpaceOnUse">
<stop stop-color="#FF1CF7"/>
<stop offset="1" stop-color="#00F0FF"/>
</linearGradient>
<linearGradient id="paint74_linear_527_222" x1="187.122" y1="445.756" x2="444.659" y2="331.093" gradientUnits="userSpaceOnUse">
<stop stop-color="#FF1CF7"/>
<stop offset="1" stop-color="#00F0FF"/>
</linearGradient>
<linearGradient id="paint75_linear_527_222" x1="183.42" y1="444.431" x2="442.372" y2="334.513" gradientUnits="userSpaceOnUse">
<stop stop-color="#FF1CF7"/>
<stop offset="1" stop-color="#00F0FF"/>
</linearGradient>
<linearGradient id="paint76_linear_527_222" x1="179.76" y1="443.1" x2="440.04" y2="337.94" gradientUnits="userSpaceOnUse">
<stop stop-color="#FF1CF7"/>
<stop offset="1" stop-color="#00F0FF"/>
</linearGradient>
<linearGradient id="paint77_linear_527_222" x1="176.144" y1="441.762" x2="437.663" y2="341.374" gradientUnits="userSpaceOnUse">
<stop stop-color="#FF1CF7"/>
<stop offset="1" stop-color="#00F0FF"/>
</linearGradient>
<linearGradient id="paint78_linear_527_222" x1="172.569" y1="440.417" x2="435.242" y2="344.812" gradientUnits="userSpaceOnUse">
<stop stop-color="#FF1CF7"/>
<stop offset="1" stop-color="#00F0FF"/>
</linearGradient>
<linearGradient id="paint79_linear_527_222" x1="169.038" y1="439.068" x2="432.777" y2="348.256" gradientUnits="userSpaceOnUse">
<stop stop-color="#FF1CF7"/>
<stop offset="1" stop-color="#00F0FF"/>
</linearGradient>
<linearGradient id="paint80_linear_527_222" x1="165.549" y1="437.715" x2="430.268" y2="351.703" gradientUnits="userSpaceOnUse">
<stop stop-color="#FF1CF7"/>
<stop offset="1" stop-color="#00F0FF"/>
</linearGradient>
<linearGradient id="paint81_linear_527_222" x1="162.103" y1="436.359" x2="427.714" y2="355.153" gradientUnits="userSpaceOnUse">
<stop stop-color="#FF1CF7"/>
<stop offset="1" stop-color="#00F0FF"/>
</linearGradient>
<linearGradient id="paint82_linear_527_222" x1="158.701" y1="434.999" x2="425.116" y2="358.606" gradientUnits="userSpaceOnUse">
<stop stop-color="#FF1CF7"/>
<stop offset="1" stop-color="#00F0FF"/>
</linearGradient>
<linearGradient id="paint83_linear_527_222" x1="155.34" y1="433.639" x2="422.474" y2="362.06" gradientUnits="userSpaceOnUse">
<stop stop-color="#FF1CF7"/>
<stop offset="1" stop-color="#00F0FF"/>
</linearGradient>
<linearGradient id="paint84_linear_527_222" x1="152.022" y1="432.276" x2="419.787" y2="365.515" gradientUnits="userSpaceOnUse">
<stop stop-color="#FF1CF7"/>
<stop offset="1" stop-color="#00F0FF"/>
</linearGradient>
<linearGradient id="paint85_linear_527_222" x1="148.746" y1="430.914" x2="417.056" y2="368.97" gradientUnits="userSpaceOnUse">
<stop stop-color="#FF1CF7"/>
<stop offset="1" stop-color="#00F0FF"/>
</linearGradient>
<linearGradient id="paint86_linear_527_222" x1="145.513" y1="429.553" x2="414.281" y2="372.425" gradientUnits="userSpaceOnUse">
<stop stop-color="#FF1CF7"/>
<stop offset="1" stop-color="#00F0FF"/>
</linearGradient>
<linearGradient id="paint87_linear_527_222" x1="142.321" y1="428.193" x2="411.462" y2="375.877" gradientUnits="userSpaceOnUse">
<stop stop-color="#FF1CF7"/>
<stop offset="1" stop-color="#00F0FF"/>
</linearGradient>
<linearGradient id="paint88_linear_527_222" x1="139.172" y1="426.834" x2="408.6" y2="379.327" gradientUnits="userSpaceOnUse">
<stop stop-color="#FF1CF7"/>
<stop offset="1" stop-color="#00F0FF"/>
</linearGradient>
<linearGradient id="paint89_linear_527_222" x1="136.066" y1="425.48" x2="405.694" y2="382.775" gradientUnits="userSpaceOnUse">
<stop stop-color="#FF1CF7"/>
<stop offset="1" stop-color="#00F0FF"/>
</linearGradient>
<linearGradient id="paint90_linear_527_222" x1="133.001" y1="424.127" x2="402.744" y2="386.217" gradientUnits="userSpaceOnUse">
<stop stop-color="#FF1CF7"/>
<stop offset="1" stop-color="#00F0FF"/>
</linearGradient>
<linearGradient id="paint91_linear_527_222" x1="129.977" y1="422.78" x2="399.751" y2="389.656" gradientUnits="userSpaceOnUse">
<stop stop-color="#FF1CF7"/>
<stop offset="1" stop-color="#00F0FF"/>
</linearGradient>
<linearGradient id="paint92_linear_527_222" x1="126.996" y1="421.437" x2="396.715" y2="393.088" gradientUnits="userSpaceOnUse">
<stop stop-color="#FF1CF7"/>
<stop offset="1" stop-color="#00F0FF"/>
</linearGradient>
<linearGradient id="paint93_linear_527_222" x1="124.056" y1="420.101" x2="393.636" y2="396.516" gradientUnits="userSpaceOnUse">
<stop stop-color="#FF1CF7"/>
<stop offset="1" stop-color="#00F0FF"/>
</linearGradient>
<linearGradient id="paint94_linear_527_222" x1="121.157" y1="418.77" x2="390.514" y2="399.935" gradientUnits="userSpaceOnUse">
<stop stop-color="#FF1CF7"/>
<stop offset="1" stop-color="#00F0FF"/>
</linearGradient>
<linearGradient id="paint95_linear_527_222" x1="118.299" y1="417.448" x2="387.35" y2="403.347" gradientUnits="userSpaceOnUse">
<stop stop-color="#FF1CF7"/>
<stop offset="1" stop-color="#00F0FF"/>
</linearGradient>
<linearGradient id="paint96_linear_527_222" x1="115.482" y1="416.131" x2="384.143" y2="406.749" gradientUnits="userSpaceOnUse">
<stop stop-color="#FF1CF7"/>
<stop offset="1" stop-color="#00F0FF"/>
</linearGradient>
<linearGradient id="paint97_linear_527_222" x1="112.705" y1="414.825" x2="380.895" y2="410.144" gradientUnits="userSpaceOnUse">
<stop stop-color="#FF1CF7"/>
<stop offset="1" stop-color="#00F0FF"/>
</linearGradient>
<linearGradient id="paint98_linear_527_222" x1="109.969" y1="413.528" x2="377.605" y2="413.528" gradientUnits="userSpaceOnUse">
<stop stop-color="#FF1CF7"/>
<stop offset="1" stop-color="#00F0FF"/>
</linearGradient>
</defs>
</svg>
