<?xml version="1.0" standalone="no"?>
<!DOCTYPE svg PUBLIC "-//W3C//DTD SVG 20010904//EN"
 "http://www.w3.org/TR/2001/REC-SVG-20010904/DTD/svg10.dtd">
<svg version="1.0" xmlns="http://www.w3.org/2000/svg"
 width="1024.000000pt" height="1024.000000pt" viewBox="0 0 1024.000000 1024.000000"
 preserveAspectRatio="xMidYMid meet">

<g transform="translate(0.000000,1024.000000) scale(0.100000,-0.100000)"
fill="#000000" stroke="none">
<path d="M5245 8128 c-110 -7 -295 -29 -405 -48 -176 -29 -475 -111 -587 -161
-24 -11 -47 -19 -51 -19 -5 0 -35 -13 -68 -28 -32 -16 -75 -35 -94 -42 -19 -8
-37 -16 -40 -19 -3 -4 -43 -26 -90 -50 -47 -24 -97 -52 -112 -62 -14 -11 -29
-19 -32 -19 -5 0 -111 -71 -175 -117 -65 -47 -147 -109 -157 -118 -6 -5 -40
-35 -75 -65 -138 -117 -334 -325 -462 -490 -37 -47 -166 -244 -197 -299 -20
-37 -41 -75 -47 -86 -31 -55 -93 -189 -122 -265 -18 -47 -37 -93 -42 -102 -5
-10 -9 -25 -9 -33 0 -8 -4 -23 -10 -33 -12 -21 -56 -178 -81 -292 -64 -282
-73 -367 -72 -670 0 -327 13 -442 83 -740 32 -141 118 -365 216 -565 89 -183
119 -233 248 -415 145 -204 346 -417 556 -590 30 -25 60 -49 66 -55 36 -31 55
-45 64 -45 6 0 10 -4 10 -9 0 -5 14 -14 30 -21 17 -7 30 -16 30 -21 0 -5 6 -9
13 -9 7 0 23 -9 35 -20 12 -11 24 -20 27 -20 3 0 32 -17 63 -38 31 -21 71 -44
87 -52 17 -8 32 -17 35 -20 18 -18 325 -160 346 -160 3 0 20 -6 37 -14 49 -22
241 -82 352 -109 223 -55 398 -78 728 -97 334 -20 751 26 1097 119 73 19 276
86 334 110 111 45 315 140 326 151 3 3 25 16 50 29 100 52 125 66 130 71 3 3
30 21 60 40 53 33 190 129 200 140 3 3 24 20 46 38 57 44 77 87 63 138 -6 21
-16 45 -22 52 -12 16 -125 102 -133 102 -2 0 -10 5 -17 10 -10 9 -75 55 -385
275 -23 17 -82 58 -130 92 -48 34 -121 86 -162 115 -41 28 -79 55 -85 60 -10
8 -256 187 -278 202 -9 5 -43 -12 -102 -51 -114 -76 -160 -100 -295 -153 -227
-89 -357 -114 -610 -114 -229 0 -324 14 -505 75 -121 41 -345 145 -345 161 0
4 -6 8 -13 8 -7 0 -23 9 -35 20 -12 11 -24 20 -27 20 -34 0 -305 261 -370 356
-22 33 -42 61 -45 64 -49 48 -171 304 -206 435 -98 364 -81 702 52 1029 38 95
102 228 114 236 3 3 9 12 12 20 13 36 148 202 232 286 85 85 226 195 306 240
19 10 37 21 40 24 5 5 71 37 130 63 318 140 706 166 1073 72 54 -13 119 -34
144 -45 25 -11 50 -20 55 -20 15 0 191 -87 232 -115 20 -14 40 -25 43 -25 3 0
28 -16 55 -35 l49 -36 82 64 c45 35 111 83 147 108 36 24 67 47 70 50 3 3 34
26 70 50 36 24 100 70 142 102 43 31 80 57 83 57 3 0 28 17 55 38 27 20 81 60
120 87 39 28 77 55 83 60 32 27 298 215 305 215 4 0 24 16 45 35 39 36 48 75
26 117 -17 32 -87 98 -164 156 -39 28 -74 55 -80 59 -5 5 -22 14 -37 22 -16 8
-28 18 -28 23 0 4 -5 8 -11 8 -6 0 -23 9 -39 20 -55 39 -264 148 -390 202 -19
9 -56 25 -82 37 -26 11 -51 21 -56 21 -5 0 -37 12 -73 26 -66 26 -81 31 -264
82 -258 71 -471 104 -799 122 -195 11 -207 11 -381 -2z"/>
<path d="M6604 5798 c-55 -109 -67 -131 -74 -138 -7 -7 -25 -41 -155 -295
-181 -353 -257 -499 -265 -510 -4 -5 -29 -50 -55 -100 -26 -49 -59 -110 -73
-135 -75 -134 -122 -225 -122 -236 0 -4 63 -5 141 -2 156 6 143 0 209 91 l35
48 110 -4 c119 -4 204 -27 315 -85 44 -23 75 -31 148 -36 104 -8 105 -8 68 57
-99 177 -156 250 -219 286 -33 18 -54 21 -162 21 -148 0 -145 -4 -80 115 24
44 85 162 137 262 51 101 98 183 104 183 6 0 18 -15 25 -32 7 -18 26 -55 42
-83 72 -121 236 -431 372 -700 l60 -120 143 -3 c117 -2 142 0 142 12 0 13
-141 297 -186 376 -12 19 -67 127 -124 240 -57 113 -111 216 -121 230 -9 14
-48 86 -86 160 -39 74 -85 162 -103 195 -18 33 -49 89 -68 125 -70 129 -94
170 -102 170 -5 0 -30 -42 -56 -92z"/>
<path d="M7659 5854 c-15 -10 -38 -35 -53 -58 l-26 -40 0 -657 0 -658 33 -34
c68 -73 195 -57 227 28 13 35 14 1297 0 1346 -6 19 -21 46 -35 59 -32 30 -109
38 -146 14z"/>
</g>
</svg>
